<?xml version="1.0" encoding="utf-8"?>
<!-- Svg Vector Icons : http://www.onlinewebfonts.com/icon -->
<!DOCTYPE svg PUBLIC "-//W3C//DTD SVG 1.1//EN" "http://www.w3.org/Graphics/SVG/1.1/DTD/svg11.dtd">
<svg version="1.1" xmlns="http://www.w3.org/2000/svg" xmlns:xlink="http://www.w3.org/1999/xlink" x="0px" y="0px" viewBox="0 0 1000 1000" enable-background="new 0 0 1000 1000" xml:space="preserve">
<metadata> Svg Vector Icons : http://www.onlinewebfonts.com/icon </metadata>
<g><g transform="translate(0.000000,512.000000) scale(0.100000,-0.100000)"><path d="M4530.1,5007.9C3375.4,4889,2341.7,4400,1530.4,3588.6C751.6,2809.9,287.5,1860.5,124.4,723.1c-32.6-226.3-32.6-982,0-1208.3c163-1137.4,629.1-2086.8,1405.9-2865.5c778.7-776.8,1728.1-1242.9,2865.5-1405.9c226.3-32.6,982-32.6,1208.3,0c939.8,134.3,1779.9,491,2474.2,1053c987.8,797.9,1611.1,1916.1,1797.2,3218.4c32.6,226.3,32.6,982,0,1208.3C9741.3,1663,9396,2482,8839.8,3178.2c-281.9,351-725,763.4-1081.8,1003.1c-623.3,420-1298.5,680.9-2067.6,799.8C5448.8,5017.5,4775.6,5034.8,4530.1,5007.9z M5364.4,3782.4c1114.3-117,2106-717.3,2715.9-1651.4c709.7-1081.7,794.1-2478,222.5-3632.7c-86.3-176.4-245.5-439.2-283.9-469.9c-24.9-23-354.8,299.2-2579.7,2524.1c-1402.1,1402.1-2549,2558.6-2549,2570.1c0,26.9,351,235.9,556.2,331.8C4046.7,3734.4,4718,3849.5,5364.4,3782.4z M4578-312.6c2441.6-2441.6,2558.6-2560.5,2522.2-2589.3c-71-53.7-343.3-216.7-479.5-282c-1507.5-748-3354.6-356.7-4436.3,934.1c-960.9,1147-1137.4,2756.2-446.9,4068.1c95.9,180.3,251.2,429.6,270.4,429.6C2013.7,2248,3170.2,1095.2,4578-312.6z" style="fill:gray"/></g></g>
</svg>