<?xml version="1.0" encoding="iso-8859-1"?>
<!-- Generator: Adobe Illustrator 19.0.0, SVG Export Plug-In . SVG Version: 6.00 Build 0)  -->
<svg version="1.1" id="Layer_1" xmlns="http://www.w3.org/2000/svg" xmlns:xlink="http://www.w3.org/1999/xlink" x="0px" y="0px"
	 viewBox="0 0 511.999 511.999" style="enable-background:new 0 0 511.999 511.999;" xml:space="preserve">
<g>
	<g>
		<path d="M480.108,296.341c-16.692-15.928-37.559-23.179-57.241-19.898c-19.653,3.277-35.159,12.765-44.976,27.441L277.617,83.283
			V13.636H240.8v40.315c-50.327-42.963-126.304-40.416-173.057,7.16L0,130.043l13.129,12.903
			c23.898,23.486,55.427,36.368,88.927,36.368c0.455,0,0.918-0.002,1.375-0.007c33.823-0.355,65.408-13.827,88.948-37.938
			l40.967-41.687l-92.819,204.202c-9.817-14.677-25.324-24.164-44.976-27.441c-19.687-3.28-40.549,3.97-57.241,19.899
			c-23.282,22.216-35.196,57.435-31.093,91.911c5.601,47.082,37.053,86.386,82.081,102.569c14.1,5.069,28.614,7.541,42.96,7.541
			c31.458,0,62.083-11.894,85.637-34.384c25.113-23.975,38.346-58.721,34.537-90.676c-2.731-22.909-14.202-41.784-31.474-51.786
			h-0.001c-14.408-8.346-29.348-11.515-43.743-9.372l81.996-180.389l81.996,180.389c-14.393-2.142-29.334,1.028-43.743,9.372h-0.001
			c-17.271,10.002-28.743,28.877-31.474,51.786c-3.809,31.955,9.424,66.701,34.537,90.676
			c23.557,22.489,54.178,34.384,85.637,34.384c14.342,0,28.862-2.474,42.96-7.541c45.026-16.185,76.478-55.487,82.081-102.569
			C515.304,353.777,503.39,318.558,480.108,296.341z M166.101,115.581l-0.047,0.047c-16.656,17.071-39.034,26.613-63.01,26.864
			c-17.893,0.212-35.003-4.787-49.665-14.24l40.623-41.337c16.634-16.925,39.096-26.342,63.251-26.515
			c17.757-0.12,34.789,4.748,49.357,13.96L166.101,115.581z M178.829,349.459c7.287-2.367,15.034-1.086,23.676,3.92
			c9.787,5.667,12.576,17.648,13.367,24.285c1.933,16.208-3.199,40.4-23.402,59.687c-24.508,23.396-58.422,30.434-90.719,18.826
			c-32.299-11.61-53.972-38.629-57.975-72.274c-3.299-27.734,8.144-49.658,19.953-60.928c4.317-4.119,12.572-10.509,22.23-10.509
			c1.16,0,2.342,0.092,3.538,0.292c9.815,1.636,16.589,5.552,20.704,11.973c8.846,13.795,5.28,37.08,3.176,44.824l34.555,12.421
			C150.955,375.162,163.119,354.564,178.829,349.459z M474.643,383.902c-4.005,33.645-25.676,60.664-57.975,72.274
			c-32.294,11.609-66.211,4.573-90.719-18.826c-20.203-19.287-25.336-43.479-23.402-59.687c0.792-6.637,3.58-18.617,13.367-24.285
			h-0.001c8.612-4.986,16.327-6.277,23.589-3.948c15.606,5.007,27.678,25.235,30.987,32.546l34.573-12.357
			c-2.121-7.808-5.687-31.092,3.159-44.888c4.116-6.42,10.888-10.337,20.704-11.973c11.154-1.862,20.933,5.602,25.768,10.217
			C466.499,334.244,477.942,356.169,474.643,383.902z"/>
	</g>
</g>
<g>
</g>
<g>
</g>
<g>
</g>
<g>
</g>
<g>
</g>
<g>
</g>
<g>
</g>
<g>
</g>
<g>
</g>
<g>
</g>
<g>
</g>
<g>
</g>
<g>
</g>
<g>
</g>
<g>
</g>
</svg>
